<svg width="24" height="25" fill="none" xmlns="http://www.w3.org/2000/svg">
    <path d="M10 12.051c2.21 0 4-1.797 4-4.017 0-2.22-1.79-4.017-4-4.017S6 5.815 6 8.034c0 2.22 1.79 4.017 4 4.017zm0-6.025c1.1 0 2 .904 2 2.008a2.01 2.01 0 0 1-2 2.009c-1.1 0-2-.904-2-2.009 0-1.104.9-2.008 2-2.008zM4 18.077c.22-.723 3.31-2.008 6-2.008 0-.703.13-1.376.35-1.999C7.62 13.97 2 15.335 2 18.077v2.009h9.54a5.906 5.906 0 0 1-1.19-2.009H4zM19.43 18.097c.36-.592.57-1.285.57-2.028 0-2.22-1.79-4.017-4-4.017s-4 1.797-4 4.017c0 2.22 1.79 4.017 4 4.017.74 0 1.43-.221 2.02-.573l2.57 2.581L22 20.678c-1.5-1.506-.79-.803-2.57-2.58zm-3.43-.02c-1.1 0-2-.904-2-2.008 0-1.105.9-2.009 2-2.009s2 .904 2 2.009a2.01 2.01 0 0 1-2 2.008z" fill="#fff"/>
</svg>
