<svg width="24" height="25" fill="none" xmlns="http://www.w3.org/2000/svg">
    <path d="m18.19 12.493-3.24-1.627a5.48 5.48 0 0 0 2.12-4.338c0-3.043-2.47-5.524-5.5-5.524s-5.5 2.481-5.5 5.524a5.52 5.52 0 0 0 3 4.911v3.274c-2.15-.462-2.02-.442-2.26-.442-.53 0-1.03.211-1.41.593L4 16.29l5.09 5.112a2.31 2.31 0 0 0 1.65.692h6.3c.98 0 1.81-.703 1.97-1.677l.8-4.73a3.009 3.009 0 0 0-1.62-3.194zm-.35 2.863-.8 4.73h-6.3c-.09 0-.17-.04-.24-.1L6.82 16.29l4.25.893V6.528c0-.281.22-.502.5-.502s.5.22.5.502v6.026h1.76l3.46 1.737c.4.201.62.633.55 1.065zM8.07 6.528a3.511 3.511 0 0 1 3.5-3.515 3.511 3.511 0 0 1 2.5 5.965v-2.45c0-1.386-1.12-2.51-2.5-2.51s-2.5 1.124-2.5 2.51v2.45c-.62-.632-1-1.496-1-2.45z" fill="#fff"/>
</svg>
