<svg width="24" height="24" viewBox="0 0 24 24" fill="none" xmlns="http://www.w3.org/2000/svg">
<path d="M22.125 12.7855V18.1216C22.125 20.5397 20.1647 22.5 17.7466 22.5H11.4527M13.3682 2.25H6.25338C3.83525 2.25 1.875 4.21025 1.875 6.62838V12.6486" stroke="white" stroke-width="1.64189" stroke-linecap="round"/>
<path d="M7.62207 9.09082L9.45823 11.0417C9.65657 11.2525 9.65657 11.5812 9.45823 11.7919L7.62207 13.7428M11.4532 15.3847H16.3788" stroke="white" stroke-width="1.64189" stroke-linecap="round" stroke-linejoin="round"/>
<path d="M21.7346 9.81561L21.6003 8.93983C21.5046 8.31654 21.1449 7.76475 20.6132 7.42579L19.3018 6.58984M2.42285 15.9487L2.55724 16.8245C2.65285 17.4478 3.01262 17.9996 3.54435 18.3386L4.85575 19.1745" stroke="white" stroke-width="1.64189" stroke-linecap="round"/>
<path d="M19.052 4.96698C18.9144 4.07068 18.0764 3.45556 17.1801 3.59308C16.2838 3.73061 15.6686 4.56869 15.8062 5.46499C15.9437 6.36129 16.7818 6.97641 17.6781 6.83889C18.5744 6.70136 19.1895 5.86328 19.052 4.96698Z" stroke="white" stroke-width="1.64189"/>
<path d="M5.1033 20.7986C5.24082 21.6949 6.07891 22.3101 6.97521 22.1725C7.87151 22.035 8.48662 21.1969 8.3491 20.3006C8.21158 19.4043 7.3735 18.7892 6.4772 18.9267C5.58089 19.0643 4.96578 19.9023 5.1033 20.7986Z" stroke="white" stroke-width="1.64189"/>
</svg>
